<svg width="24" height="24" viewBox="0 0 24 24" fill="none" xmlns="http://www.w3.org/2000/svg">
<path fill-rule="evenodd" clip-rule="evenodd" d="M17.2047 10.7961L19.0007 9.00007C19.5457 8.45507 19.8187 8.18207 19.9647 7.88807C20.1015 7.61204 20.1727 7.30814 20.1727 7.00007C20.1727 6.69201 20.1015 6.38811 19.9647 6.11207C19.8187 5.81807 19.5457 5.54507 19.0007 5.00007C18.4557 4.45507 18.1827 4.18207 17.8887 4.03607C17.6127 3.89929 17.3088 3.82812 17.0007 3.82812C16.6927 3.82813 16.3888 3.89929 16.1127 4.03607C15.8187 4.18207 15.5457 4.45507 15.0007 5.00007L13.1817 6.81907C14.1494 8.47568 15.5371 9.84755 17.2047 10.7961ZM11.7277 8.27307L4.85772 15.1431C4.43172 15.5691 4.21972 15.7811 4.07972 16.0431C3.93972 16.3031 3.88072 16.5981 3.76372 17.1881L3.14772 20.2651C3.08172 20.5971 3.04772 20.7631 3.14272 20.8581C3.23772 20.9531 3.40272 20.9191 3.73572 20.8531L6.81272 20.2371C7.40272 20.1201 7.69772 20.0611 7.95872 19.9211C8.21873 19.7811 8.43172 19.5691 8.85672 19.1441L15.7467 12.2541C14.1288 11.2411 12.7558 9.88181 11.7267 8.27407L11.7277 8.27307Z" fill="#06D03F"/>
</svg>
