<svg width="24" height="24" viewBox="0 0 24 24" fill="none" xmlns="http://www.w3.org/2000/svg">
<path d="M6.34278 4.938C6.43576 5.03087 6.50952 5.14116 6.55984 5.26256C6.61017 5.38396 6.63607 5.51408 6.63607 5.6455C6.63607 5.77692 6.61017 5.90704 6.55984 6.02844C6.50952 6.14984 6.43576 6.26013 6.34278 6.353C4.84222 7.85381 3.99924 9.8892 3.99924 12.0115C3.99924 14.1338 4.84222 16.1692 6.34278 17.67C6.43829 17.7622 6.51448 17.8726 6.56689 17.9946C6.6193 18.1166 6.64688 18.2478 6.64804 18.3806C6.64919 18.5134 6.62389 18.6451 6.57361 18.768C6.52333 18.8908 6.44907 19.0025 6.35518 19.0964C6.26129 19.1903 6.14964 19.2645 6.02674 19.3148C5.90384 19.3651 5.77216 19.3904 5.63938 19.3892C5.5066 19.3881 5.37538 19.3605 5.25338 19.3081C5.13138 19.2557 5.02103 19.1795 4.92879 19.084C1.02179 15.178 1.02179 8.844 4.92879 4.938C5.11631 4.75053 5.37062 4.64521 5.63579 4.64521C5.90095 4.64521 6.15526 4.75053 6.34278 4.938ZM19.0748 4.938C22.9808 8.845 22.9808 15.178 19.0748 19.084C18.8873 19.2716 18.6329 19.3771 18.3676 19.3772C18.1024 19.3773 17.8479 19.272 17.6603 19.0845C17.4726 18.897 17.3672 18.6426 17.3671 18.3774C17.367 18.1121 17.4723 17.8576 17.6598 17.67C19.1603 16.1692 20.0033 14.1338 20.0033 12.0115C20.0033 9.8892 19.1603 7.85381 17.6598 6.353C17.4721 6.16536 17.3667 5.91086 17.3667 5.6455C17.3667 5.38014 17.4721 5.12564 17.6598 4.938C17.8474 4.75036 18.1019 4.64494 18.3673 4.64494C18.6326 4.64494 18.8871 4.75036 19.0748 4.938ZM9.30978 7.812C9.49726 7.99953 9.60257 8.25384 9.60257 8.519C9.60257 8.78416 9.49726 9.03847 9.30978 9.226C8.94574 9.59001 8.65696 10.0222 8.45993 10.4978C8.26291 10.9734 8.1615 11.4832 8.1615 11.998C8.1615 12.5128 8.26291 13.0226 8.45993 13.4982C8.65696 13.9738 8.94574 14.406 9.30978 14.77C9.40263 14.8629 9.47626 14.9732 9.52649 15.0946C9.57671 15.2159 9.60253 15.346 9.60249 15.4774C9.60244 15.6087 9.57652 15.7388 9.52622 15.8601C9.47591 15.9814 9.40219 16.0917 9.30928 16.1845C9.21637 16.2773 9.10609 16.351 8.98472 16.4012C8.86335 16.4514 8.73328 16.4772 8.60193 16.4772C8.47058 16.4772 8.34053 16.4512 8.2192 16.4009C8.09787 16.3506 7.98763 16.2769 7.89478 16.184C6.78461 15.0738 6.16093 13.568 6.16093 11.998C6.16093 10.428 6.78461 8.92221 7.89478 7.812C7.98766 7.71902 8.09795 7.64526 8.21934 7.59494C8.34074 7.54462 8.47087 7.51871 8.60228 7.51871C8.7337 7.51871 8.86383 7.54462 8.98522 7.59494C9.10662 7.64526 9.21691 7.71902 9.30978 7.812ZM16.2678 7.812C17.378 8.92221 18.0016 10.428 18.0016 11.998C18.0016 13.568 17.378 15.0738 16.2678 16.184C16.0792 16.3662 15.8266 16.467 15.5644 16.4647C15.3022 16.4624 15.0514 16.3572 14.866 16.1718C14.6806 15.9864 14.5754 15.7356 14.5731 15.4734C14.5708 15.2112 14.6716 14.9586 14.8538 14.77C15.2178 14.406 15.5066 13.9738 15.7036 13.4982C15.9007 13.0226 16.0021 12.5128 16.0021 11.998C16.0021 11.4832 15.9007 10.9734 15.7036 10.4978C15.5066 10.0222 15.2178 9.59001 14.8538 9.226C14.6716 9.0374 14.5708 8.7848 14.5731 8.5226C14.5754 8.2604 14.6806 8.00959 14.866 7.82418C15.0514 7.63877 15.3022 7.5336 15.5644 7.53133C15.8266 7.52905 16.0792 7.62984 16.2678 7.812ZM12.0818 10.582C12.2788 10.582 12.4738 10.6208 12.6558 10.6962C12.8378 10.7716 13.0032 10.8821 13.1424 11.0213C13.2817 11.1606 13.3922 11.326 13.4676 11.508C13.543 11.69 13.5818 11.885 13.5818 12.082C13.5818 12.279 13.543 12.474 13.4676 12.656C13.3922 12.838 13.2817 13.0034 13.1424 13.1427C13.0032 13.2819 12.8378 13.3924 12.6558 13.4678C12.4738 13.5432 12.2788 13.582 12.0818 13.582C11.684 13.582 11.3024 13.424 11.0211 13.1427C10.7398 12.8614 10.5818 12.4798 10.5818 12.082C10.5818 11.6842 10.7398 11.3026 11.0211 11.0213C11.3024 10.74 11.684 10.582 12.0818 10.582Z" fill="#4A545E"/>
</svg>
