<svg width="104" height="104" viewBox="0 0 104 104" fill="none" xmlns="http://www.w3.org/2000/svg">
<g filter="url(#filter0_d_485_2929)">
<rect x="20" y="18" width="64" height="64" rx="32" fill="white"/>
</g>
<path fill-rule="evenodd" clip-rule="evenodd" d="M84 50C84 67.6731 69.6731 82 52 82C34.3269 82 20 67.6731 20 50C20 32.3269 34.3269 18 52 18C69.6731 18 84 32.3269 84 50ZM53.1467 41.6238C50.0344 42.9184 43.8137 45.5979 34.4851 49.6621C32.9703 50.2645 32.1767 50.8539 32.1045 51.4301C31.9824 52.404 33.2019 52.7875 34.8626 53.3096C35.0885 53.3808 35.3226 53.4544 35.5626 53.5323C37.1964 54.0635 39.3942 54.6848 40.5368 54.7093C41.5732 54.7317 42.73 54.3045 44.0071 53.4275C52.7232 47.544 57.2224 44.5702 57.5048 44.5061C57.7043 44.4608 57.9803 44.4039 58.1675 44.5703C58.3544 44.7365 58.3363 45.0515 58.3163 45.136C58.1955 45.6509 53.4083 50.1016 50.9309 52.4048C50.1587 53.1227 49.6109 53.632 49.4989 53.7483C49.248 54.0091 48.9923 54.2555 48.7467 54.4923C47.2288 55.9555 46.0905 57.0528 48.8096 58.8448C50.1165 59.7059 51.1621 60.4179 52.2053 61.1283C53.3445 61.9043 54.4808 62.6781 55.9509 63.6419C56.3256 63.8875 56.6832 64.1424 57.0317 64.3907C58.3576 65.336 59.5488 66.1851 61.0203 66.0496C61.8755 65.9709 62.7587 65.1669 63.2072 62.7691C64.2672 57.1019 66.3509 44.8227 66.8325 39.7626C66.8749 39.3193 66.8219 38.7519 66.7792 38.5029C66.7365 38.2538 66.6475 37.899 66.3237 37.6363C65.9403 37.3252 65.3485 37.2596 65.0837 37.2642C63.88 37.2854 62.0336 37.9275 53.1467 41.6238Z" fill="#1A99FF"/>
<defs>
<filter id="filter0_d_485_2929" x="0" y="0" width="104" height="104" filterUnits="userSpaceOnUse" color-interpolation-filters="sRGB">
<feFlood flood-opacity="0" result="BackgroundImageFix"/>
<feColorMatrix in="SourceAlpha" type="matrix" values="0 0 0 0 0 0 0 0 0 0 0 0 0 0 0 0 0 0 127 0" result="hardAlpha"/>
<feOffset dy="2"/>
<feGaussianBlur stdDeviation="10"/>
<feComposite in2="hardAlpha" operator="out"/>
<feColorMatrix type="matrix" values="0 0 0 0 0.101961 0 0 0 0 0.6 0 0 0 0 1 0 0 0 0.35 0"/>
<feBlend mode="normal" in2="BackgroundImageFix" result="effect1_dropShadow_485_2929"/>
<feBlend mode="normal" in="SourceGraphic" in2="effect1_dropShadow_485_2929" result="shape"/>
</filter>
</defs>
</svg>
