<svg width="24" height="24" viewBox="0 0 24 24" fill="none" xmlns="http://www.w3.org/2000/svg">
<path d="M11.9997 5.33333C15.6817 5.33333 18.6663 8.31799 18.6663 12C18.6663 15.682 15.6817 18.6667 11.9997 18.6667C8.31767 18.6667 5.33301 15.682 5.33301 12C5.33301 8.31799 8.31767 5.33333 11.9997 5.33333ZM11.9997 6.66666C10.5852 6.66666 9.22863 7.22856 8.22844 8.22876C7.22824 9.22895 6.66634 10.5855 6.66634 12C6.66634 13.4145 7.22824 14.771 8.22844 15.7712C9.22863 16.7714 10.5852 17.3333 11.9997 17.3333C13.4142 17.3333 14.7707 16.7714 15.7709 15.7712C16.7711 14.771 17.333 13.4145 17.333 12C17.333 10.5855 16.7711 9.22895 15.7709 8.22876C14.7707 7.22856 13.4142 6.66666 11.9997 6.66666ZM11.9997 7.99999C12.163 8.00002 12.3206 8.05997 12.4426 8.16847C12.5646 8.27698 12.6426 8.42649 12.6617 8.58866L12.6663 8.66666V11.724L14.471 13.5287C14.5906 13.6486 14.66 13.8096 14.6652 13.9789C14.6703 14.1482 14.6109 14.3131 14.4988 14.4402C14.3868 14.5672 14.2306 14.6469 14.062 14.6629C13.8934 14.679 13.725 14.6303 13.591 14.5267L13.5283 14.4713L11.5283 12.4713C11.4247 12.3676 11.3582 12.2327 11.339 12.0873L11.333 12V8.66666C11.333 8.48985 11.4032 8.32028 11.5283 8.19526C11.6533 8.07023 11.8229 7.99999 11.9997 7.99999Z" fill="black"/>
</svg>
